<svg xmlns="http://www.w3.org/2000/svg" width="1600" height="900" viewBox="0 0 1600 900" role="img" aria-labelledby="title description">
  <title id="title">One shared movement-scoring graph policy across heterogeneous traffic networks</title>
  <desc id="description">Two differently structured OSM-derived traffic networks become LaneGroup and Movement graphs. The same graph neural network scores a variable number of movements. Junction-specific binary phase-incidence matrices sum the movement scores into differently sized phase-logit vectors, after which a runtime availability mask restricts phase selection. A footer shows PPO-rollout cities and Freiburg held out from PPO rollouts, with iteration 85 as the completed endpoint.</desc>
  <defs>
    <marker id="arrow" markerWidth="10" markerHeight="10" refX="8.5" refY="5" orient="auto" markerUnits="strokeWidth">
      <path d="M0,0 L10,5 L0,10 z" fill="#31566d"/>
    </marker>
    <marker id="arrow-teal" markerWidth="10" markerHeight="10" refX="8.5" refY="5" orient="auto" markerUnits="strokeWidth">
      <path d="M0,0 L10,5 L0,10 z" fill="#087f8c"/>
    </marker>
    <marker id="flow-arrow" markerWidth="7" markerHeight="7" refX="6" refY="3.5" orient="auto" markerUnits="strokeWidth">
      <path d="M0,0 L7,3.5 L0,7 z" fill="#526777"/>
    </marker>
    <style>
      .title { font: 700 31px Arial, Helvetica, sans-serif; fill: #17324d; }
      .subtitle { font: 400 17px Arial, Helvetica, sans-serif; fill: #526777; }
      .step { font: 700 18px Arial, Helvetica, sans-serif; fill: #17324d; }
      .label { font: 600 16px Arial, Helvetica, sans-serif; fill: #17324d; }
      .small { font: 400 14px Arial, Helvetica, sans-serif; fill: #445b6a; }
      .tiny { font: 400 12px Arial, Helvetica, sans-serif; fill: #445b6a; }
      .mono { font: 500 15px Consolas, Menlo, monospace; fill: #17324d; }
      .math { font: italic 17px Georgia, 'Times New Roman', serif; fill: #17324d; }
      .panel { fill: #ffffff; stroke: #a9bbc6; stroke-width: 1.5; }
      .soft { fill: #f4f7f8; stroke: #c3d0d7; stroke-width: 1.2; }
      .arrow { fill: none; stroke: #31566d; stroke-width: 2.5; marker-end: url(#arrow); }
      .arrow-teal { fill: none; stroke: #087f8c; stroke-width: 2.8; marker-end: url(#arrow-teal); }
      .lane { fill: #286f9b; stroke: #174a68; stroke-width: 1.2; }
      .move { fill: #e69f00; stroke: #9b6800; stroke-width: 1.2; }
      .edge-in { fill: none; stroke: #286f9b; stroke-width: 2; }
      .edge-out { fill: none; stroke: #e69f00; stroke-width: 2; }
      .road { fill: none; stroke: #b8c1c7; stroke-width: 10; stroke-linecap: round; }
      .roadline { fill: none; stroke: #ffffff; stroke-width: 1.5; stroke-dasharray: 7 6; }
      .flow { fill: none; stroke: #526777; stroke-width: 1.7; marker-end: url(#flow-arrow); }
      .turn { fill: none; stroke: #d55e00; stroke-width: 2.2; marker-end: url(#flow-arrow); }
      .signal { fill: #ffffff; stroke: #d55e00; stroke-width: 2; }
      .cell { stroke: #8196a3; stroke-width: 1; }
    </style>
  </defs>

  <rect width="1600" height="900" fill="#fbfaf7"/>
  <text x="800" y="48" text-anchor="middle" class="title">One shared policy, different networks and phase spaces</text>
  <text x="800" y="76" text-anchor="middle" class="subtitle">Learn priorities for common control primitives—Movements—then map them to each junction’s legal phases</text>

  <!-- step headings -->
  <text x="140" y="119" text-anchor="middle" class="step">1  OSM-derived network</text>
  <text x="410" y="119" text-anchor="middle" class="step">2  Typed movement graph</text>
  <text x="738" y="119" text-anchor="middle" class="step">3  Shared GNN</text>
  <text x="980" y="119" text-anchor="middle" class="step">4  Movement scores</text>
  <text x="1210" y="119" text-anchor="middle" class="step">5  Local phase map</text>
  <text x="1480" y="119" text-anchor="middle" class="step">6  Legal action</text>

  <!-- branch backgrounds -->
  <rect x="24" y="140" width="1552" height="265" rx="16" fill="#f7fafb" stroke="#c8d5dc"/>
  <rect x="24" y="420" width="1552" height="265" rx="16" fill="#fffaf1" stroke="#dfd1af"/>
  <rect x="38" y="153" width="66" height="28" rx="14" fill="#286f9b"/>
  <text x="71" y="173" text-anchor="middle" font-family="Arial" font-size="15" font-weight="700" fill="#fff">City A</text>
  <rect x="38" y="433" width="66" height="28" rx="14" fill="#d68b00"/>
  <text x="71" y="453" text-anchor="middle" font-family="Arial" font-size="15" font-weight="700" fill="#fff">City B</text>

  <!-- City A: irregular four-arm junction, six displayed legal movements -->
  <rect x="44" y="190" width="194" height="165" rx="10" class="panel"/>
  <path class="road" d="M53 281 L228 263 M132 197 L145 271 L171 347"/>
  <path class="roadline" d="M53 281 L228 263 M132 197 L145 271 L171 347"/>
  <path d="M58 215 L92 222 L84 241 L51 233 Z M190 298 L224 307 L216 330 L182 320 Z" fill="#b8d6a3"/>
  <circle cx="145" cy="271" r="18" fill="#eef2f4" stroke="#667b87" stroke-width="1.4"/>
  <!-- directional LaneGroups on all four arms -->
  <path class="flow" d="M62 286 L105 281 M113 273 L68 277 M222 257 L181 262 M174 270 L216 266 M128 204 L135 242 M142 242 L136 207 M178 340 L163 302 M153 301 L167 339"/>
  <!-- six controlled movements: W->E,N; E->W,S; N->S; S->N -->
  <path class="turn" d="M105 281 Q143 277 181 262 M105 281 Q131 277 135 242 M181 262 Q145 270 113 273 M181 262 Q157 275 163 302 M135 242 Q143 268 163 302 M163 302 Q151 273 142 242"/>
  <circle cx="118" cy="278" r="3.5" class="signal"/><circle cx="173" cy="265" r="3.5" class="signal"/><circle cx="138" cy="249" r="3.5" class="signal"/><circle cx="160" cy="294" r="3.5" class="signal"/>
  <text x="141" y="378" text-anchor="middle" class="label">irregular 4-arm junction</text>
  <text x="141" y="397" text-anchor="middle" class="small">6 controlled Movements</text>

  <!-- City B: skewed three-arm junction, four displayed legal movements -->
  <rect x="44" y="470" width="194" height="165" rx="10" class="panel"/>
  <path class="road" d="M53 579 L228 559 M126 478 L151 568"/>
  <path class="roadline" d="M53 579 L228 559 M126 478 L151 568"/>
  <path d="M57 498 L93 505 L87 526 L51 518 Z M186 593 L225 600 L220 625 L182 616 Z" fill="#b8d6a3"/>
  <circle cx="151" cy="568" r="18" fill="#eef2f4" stroke="#667b87" stroke-width="1.4"/>
  <path class="flow" d="M61 584 L105 579 M112 570 L69 575 M221 553 L180 558 M174 567 L216 562 M122 486 L134 528 M142 526 L131 485"/>
  <!-- four controlled movements: W->E; E->W,N; N->E -->
  <path class="turn" d="M105 579 Q145 573 180 558 M180 558 Q145 568 112 570 M180 558 Q151 552 142 526 M134 528 Q143 558 180 558"/>
  <circle cx="119" cy="576" r="3.5" class="signal"/><circle cx="172" cy="561" r="3.5" class="signal"/><circle cx="137" cy="536" r="3.5" class="signal"/>
  <text x="141" y="658" text-anchor="middle" class="label">irregular 3-arm junction</text>
  <text x="141" y="677" text-anchor="middle" class="small">4 controlled Movements</text>

  <!-- arrows network to graph -->
  <path class="arrow" d="M246 272 H287"/>
  <path class="arrow" d="M246 552 H287"/>

  <!-- Graph A: eight directed LaneGroups and the same six movements shown at left -->
  <rect x="295" y="172" width="230" height="196" rx="12" class="panel"/>
  <g>
    <!-- LaneGroups: W in/out, E in/out, N in/out, S in/out -->
    <circle cx="325" cy="253" r="11" class="lane"/><circle cx="325" cy="289" r="11" class="lane"/>
    <circle cx="495" cy="253" r="11" class="lane"/><circle cx="495" cy="289" r="11" class="lane"/>
    <circle cx="392" cy="195" r="11" class="lane"/><circle cx="428" cy="195" r="11" class="lane"/>
    <circle cx="392" cy="347" r="11" class="lane"/><circle cx="428" cy="347" r="11" class="lane"/>
    <!-- Movements positioned as their corresponding turns -->
    <circle cx="399" cy="264" r="8" class="move"/><circle cx="379" cy="246" r="8" class="move"/>
    <circle cx="421" cy="278" r="8" class="move"/><circle cx="442" cy="296" r="8" class="move"/>
    <circle cx="414" cy="286" r="8" class="move"/><circle cx="406" cy="256" r="8" class="move"/>
    <!-- input LaneGroup -> Movement (blue) -->
    <path class="edge-in" d="M336 253 L391 263 M336 253 L372 247 M484 253 L429 276 M484 253 L449 290 M392 206 L411 279 M428 336 L407 263"/>
    <!-- Movement -> output LaneGroup (amber) -->
    <path class="edge-out" d="M407 263 L484 253 M380 238 L421 203 M413 280 L336 289 M447 303 L421 338 M416 293 L421 338 M403 249 L399 206"/>
  </g>
  <text x="355" y="391" text-anchor="middle" class="tiny"><tspan fill="#286f9b" font-weight="700">LaneGroup</tspan><tspan> = corridor state</tspan></text>
  <text x="472" y="391" text-anchor="middle" class="tiny"><tspan fill="#b77800" font-weight="700">Movement</tspan><tspan> = turn</tspan></text>

  <!-- Graph B: six directed LaneGroups and the same four movements shown at left -->
  <rect x="295" y="452" width="230" height="196" rx="12" class="panel"/>
  <g>
    <circle cx="325" cy="535" r="12" class="lane"/><circle cx="325" cy="575" r="12" class="lane"/>
    <circle cx="495" cy="535" r="12" class="lane"/><circle cx="495" cy="575" r="12" class="lane"/>
    <circle cx="392" cy="477" r="12" class="lane"/><circle cx="428" cy="477" r="12" class="lane"/>
    <circle cx="397" cy="548" r="8" class="move"/><circle cx="423" cy="561" r="8" class="move"/>
    <circle cx="433" cy="530" r="8" class="move"/><circle cx="408" cy="523" r="8" class="move"/>
    <path class="edge-in" d="M337 535 L389 546 M483 535 L431 557 M483 535 L441 531 M392 489 L404 516"/>
    <path class="edge-out" d="M405 548 L483 575 M415 563 L337 575 M430 522 L428 489 M414 520 L483 575"/>
  </g>
  <text x="410" y="671" text-anchor="middle" class="small">same node and edge types; different graph size</text>

  <!-- graph to shared GNN arrows -->
  <path class="arrow-teal" d="M532 270 H626"/>
  <path class="arrow-teal" d="M532 550 H626"/>

  <!-- central shared GNN -->
  <rect x="635" y="218" width="205" height="386" rx="22" fill="#087f8c" stroke="#055f69" stroke-width="2"/>
  <text x="738" y="261" text-anchor="middle" font-family="Arial" font-size="24" font-weight="700" fill="#fff">Shared GNN</text>
  <text x="738" y="287" text-anchor="middle" font-family="Georgia" font-size="20" font-style="italic" fill="#fff">f<tspan baseline-shift="sub" font-size="14">θ</tspan>(G, X)</text>
  <g stroke="#d8f0f2" stroke-width="2" fill="#fff">
    <line x1="688" y1="350" x2="737" y2="323"/><line x1="737" y1="323" x2="788" y2="350"/><line x1="688" y1="350" x2="714" y2="400"/><line x1="737" y1="323" x2="760" y2="400"/><line x1="788" y1="350" x2="760" y2="400"/><line x1="714" y1="400" x2="760" y2="400"/>
    <circle cx="688" cy="350" r="9"/><circle cx="737" cy="323" r="9"/><circle cx="788" cy="350" r="9"/><circle cx="714" cy="400" r="9"/><circle cx="760" cy="400" r="9"/>
  </g>
  <line x1="670" y1="447" x2="805" y2="447" stroke="#8fd0d5"/>
  <text x="738" y="481" text-anchor="middle" font-family="Arial" font-size="16" fill="#fff">one parameter set θ</text>
  <text x="738" y="507" text-anchor="middle" font-family="Arial" font-size="16" fill="#fff">typed message passing</text>
  <text x="738" y="533" text-anchor="middle" font-family="Arial" font-size="16" fill="#fff">one scalar per Movement</text>
  <rect x="660" y="554" width="155" height="30" rx="15" fill="#fff" opacity="0.95"/>
  <text x="738" y="575" text-anchor="middle" font-family="Arial" font-size="14" font-weight="700" fill="#087f8c">no city-specific head</text>

  <!-- GNN to scores -->
  <path class="arrow-teal" d="M848 270 H888"/>
  <path class="arrow-teal" d="M848 550 H888"/>

  <!-- score vectors -->
  <rect x="896" y="192" width="166" height="158" rx="12" class="panel"/>
  <text x="979" y="220" text-anchor="middle" class="math">s<tspan baseline-shift="sub" font-size="12">A</tspan> ∈ ℝ⁶</text>
  <g class="mono" text-anchor="middle">
    <rect x="920" y="238" width="38" height="34" rx="5" fill="#f7c65b"/><text x="939" y="261">1.2</text>
    <rect x="962" y="238" width="38" height="34" rx="5" fill="#ffe5a6"/><text x="981" y="261">0.4</text>
    <rect x="1004" y="238" width="38" height="34" rx="5" fill="#d9e1e5"/><text x="1023" y="261">−.3</text>
    <rect x="920" y="278" width="38" height="34" rx="5" fill="#f9d27b"/><text x="939" y="301">0.9</text>
    <rect x="962" y="278" width="38" height="34" rx="5" fill="#f3b432"/><text x="981" y="301">1.5</text>
    <rect x="1004" y="278" width="38" height="34" rx="5" fill="#ffe5a6"/><text x="1023" y="301">0.5</text>
  </g>
  <text x="979" y="334" text-anchor="middle" class="small">6 learned priorities</text>

  <rect x="896" y="472" width="166" height="158" rx="12" class="panel"/>
  <text x="979" y="500" text-anchor="middle" class="math">s<tspan baseline-shift="sub" font-size="12">B</tspan> ∈ ℝ⁴</text>
  <g class="mono" text-anchor="middle">
    <rect x="919" y="526" width="38" height="34" rx="5" fill="#f7c65b"/><text x="938" y="549">1.1</text>
    <rect x="961" y="526" width="38" height="34" rx="5" fill="#d9e1e5"/><text x="980" y="549">−.2</text>
    <rect x="1003" y="526" width="38" height="34" rx="5" fill="#f9d27b"/><text x="1022" y="549">0.8</text>
    <rect x="961" y="566" width="38" height="34" rx="5" fill="#f3b432"/><text x="980" y="589">1.4</text>
  </g>
  <text x="979" y="616" text-anchor="middle" class="small">4 learned priorities</text>

  <!-- score-to-matrix multiplication arrows -->
  <path class="arrow" d="M1070 270 H1094"/>
  <path class="arrow" d="M1070 550 H1094"/>

  <!-- Incidence A -->
  <rect x="1102" y="172" width="218" height="198" rx="12" class="panel"/>
  <text x="1211" y="202" text-anchor="middle" class="math">ℓ<tspan baseline-shift="sub" font-size="12">A</tspan> = A<tspan baseline-shift="sub" font-size="12">A</tspan>s<tspan baseline-shift="sub" font-size="12">A</tspan></text>
  <text x="1211" y="222" text-anchor="middle" class="tiny">binary Movement → phase incidence</text>
  <g transform="translate(1134 239)">
    <rect width="24" height="24" class="cell" fill="#087f8c"/><rect x="24" width="24" height="24" class="cell" fill="#087f8c"/><rect x="48" width="24" height="24" class="cell" fill="#fff"/><rect x="72" width="24" height="24" class="cell" fill="#fff"/><rect x="96" width="24" height="24" class="cell" fill="#fff"/><rect x="120" width="24" height="24" class="cell" fill="#fff"/>
    <rect y="24" width="24" height="24" class="cell" fill="#fff"/><rect x="24" y="24" width="24" height="24" class="cell" fill="#fff"/><rect x="48" y="24" width="24" height="24" class="cell" fill="#087f8c"/><rect x="72" y="24" width="24" height="24" class="cell" fill="#087f8c"/><rect x="96" y="24" width="24" height="24" class="cell" fill="#fff"/><rect x="120" y="24" width="24" height="24" class="cell" fill="#fff"/>
    <rect y="48" width="24" height="24" class="cell" fill="#087f8c"/><rect x="24" y="48" width="24" height="24" class="cell" fill="#fff"/><rect x="48" y="48" width="24" height="24" class="cell" fill="#fff"/><rect x="72" y="48" width="24" height="24" class="cell" fill="#fff"/><rect x="96" y="48" width="24" height="24" class="cell" fill="#087f8c"/><rect x="120" y="48" width="24" height="24" class="cell" fill="#087f8c"/>
  </g>
  <text x="1211" y="332" text-anchor="middle" class="mono">ℓ<tspan baseline-shift="sub" font-size="11">A</tspan> = [1.6, 0.6, 3.2]</text>
  <text x="1211" y="354" text-anchor="middle" class="small">3 synthesized phases</text>

  <!-- Incidence B -->
  <rect x="1102" y="452" width="218" height="198" rx="12" class="panel"/>
  <text x="1211" y="482" text-anchor="middle" class="math">ℓ<tspan baseline-shift="sub" font-size="12">B</tspan> = A<tspan baseline-shift="sub" font-size="12">B</tspan>s<tspan baseline-shift="sub" font-size="12">B</tspan></text>
  <text x="1211" y="502" text-anchor="middle" class="tiny">junction-specific; not learned</text>
  <g transform="translate(1158 527)">
    <rect width="26" height="26" class="cell" fill="#087f8c"/><rect x="26" width="26" height="26" class="cell" fill="#087f8c"/><rect x="52" width="26" height="26" class="cell" fill="#fff"/><rect x="78" width="26" height="26" class="cell" fill="#fff"/>
    <rect y="26" width="26" height="26" class="cell" fill="#fff"/><rect x="26" y="26" width="26" height="26" class="cell" fill="#fff"/><rect x="52" y="26" width="26" height="26" class="cell" fill="#087f8c"/><rect x="78" y="26" width="26" height="26" class="cell" fill="#087f8c"/>
  </g>
  <text x="1211" y="600" text-anchor="middle" class="mono">ℓ<tspan baseline-shift="sub" font-size="11">B</tspan> = [0.9, 2.2]</text>
  <text x="1211" y="624" text-anchor="middle" class="small">2 synthesized phases</text>

  <!-- matrices to masks/actions -->
  <path class="arrow" d="M1328 270 H1350"/>
  <path class="arrow" d="M1328 550 H1350"/>

  <!-- Legal action A -->
  <rect x="1358" y="181" width="190" height="178" rx="12" class="panel"/>
  <text x="1453" y="211" text-anchor="middle" class="label">runtime availability mask</text>
  <g transform="translate(1381 231)">
    <rect width="48" height="42" rx="6" fill="#dcefee" stroke="#087f8c"/><text x="24" y="27" text-anchor="middle" class="mono">1.6</text>
    <rect x="56" width="48" height="42" rx="6" fill="#e6e9eb" stroke="#8b969d"/><text x="80" y="27" text-anchor="middle" class="mono" fill="#6c7479">−∞</text>
    <rect x="112" width="48" height="42" rx="6" fill="#b7e0bd" stroke="#25883d" stroke-width="2"/><text x="136" y="27" text-anchor="middle" class="mono">3.2</text>
    <path d="M62 7 L98 35 M98 7 L62 35" stroke="#7d878d" stroke-width="2"/>
  </g>
  <text x="1453" y="302" text-anchor="middle" class="small">sample one legal phase</text>
  <rect x="1400" y="316" width="106" height="28" rx="14" fill="#25883d"/>
  <text x="1453" y="336" text-anchor="middle" font-family="Arial" font-size="14" font-weight="700" fill="#fff">choose phase 3</text>

  <!-- Legal action B -->
  <rect x="1358" y="461" width="190" height="178" rx="12" class="panel"/>
  <text x="1453" y="491" text-anchor="middle" class="label">runtime availability mask</text>
  <g transform="translate(1409 511)">
    <rect width="52" height="42" rx="6" fill="#e6e9eb" stroke="#8b969d"/><text x="26" y="27" text-anchor="middle" class="mono" fill="#6c7479">−∞</text>
    <rect x="60" width="52" height="42" rx="6" fill="#b7e0bd" stroke="#25883d" stroke-width="2"/><text x="86" y="27" text-anchor="middle" class="mono">2.2</text>
    <path d="M6 7 L46 35 M46 7 L6 35" stroke="#7d878d" stroke-width="2"/>
  </g>
  <text x="1453" y="582" text-anchor="middle" class="tiny">mask enforces minimum green</text>
  <rect x="1400" y="596" width="106" height="28" rx="14" fill="#25883d"/>
  <text x="1453" y="616" text-anchor="middle" font-family="Arial" font-size="14" font-weight="700" fill="#fff">choose phase 2</text>

  <!-- central formula -->
  <rect x="505" y="702" width="590" height="54" rx="27" fill="#ffffff" stroke="#7fa1b4" stroke-width="1.5"/>
  <text x="800" y="736" text-anchor="middle" class="math">phase logit ℓ<tspan baseline-shift="sub" font-size="12">j,p</tspan> = Σ<tspan baseline-shift="sub" font-size="12">m</tspan> A<tspan baseline-shift="sub" font-size="12">j,p,m</tspan> s<tspan baseline-shift="sub" font-size="12">m</tspan>     ·     shared θ, local A<tspan baseline-shift="sub" font-size="12">j</tspan></text>

  <!-- training/evaluation provenance footer -->
  <rect x="24" y="779" width="1552" height="94" rx="14" fill="#edf3f5" stroke="#a9bbc6" stroke-width="1.3"/>
  <text x="49" y="807" class="label">Training and evaluation provenance</text>
  <rect x="49" y="821" width="144" height="32" rx="16" fill="#d9ebf4" stroke="#286f9b"/><text x="121" y="842" text-anchor="middle" class="small">Karlsruhe</text>
  <rect x="203" y="821" width="144" height="32" rx="16" fill="#d9ebf4" stroke="#286f9b"/><text x="275" y="842" text-anchor="middle" class="small">Mannheim</text>
  <rect x="357" y="821" width="144" height="32" rx="16" fill="#d9ebf4" stroke="#286f9b"/><text x="429" y="842" text-anchor="middle" class="small">Stuttgart</text>
  <rect x="511" y="821" width="144" height="32" rx="16" fill="#d9ebf4" stroke="#286f9b"/><text x="583" y="842" text-anchor="middle" class="small">Heidelberg</text>
  <text x="674" y="842" class="small">→ PPO rollouts</text>
  <line x1="803" y1="796" x2="803" y2="858" stroke="#a9bbc6"/>
  <rect x="829" y="821" width="144" height="32" rx="16" fill="#fff4da" stroke="#d68b00" stroke-width="1.5"/><text x="901" y="842" text-anchor="middle" class="small">Freiburg</text>
  <text x="991" y="842" class="small">held out from PPO rollouts; periodic evaluation</text>
  <line x1="1241" y1="796" x2="1241" y2="858" stroke="#a9bbc6"/>
  <circle cx="1276" cy="837" r="10" fill="#087f8c"/>
  <path d="M1288 837 H1320" class="arrow-teal"/>
  <circle cx="1336" cy="837" r="10" fill="#087f8c"/>
  <text x="1360" y="830" class="label">iteration 85</text>
  <text x="1360" y="851" class="small">manually stopped; completed endpoint</text>
</svg>
